<svg width="20" height="20" viewBox="0 0 20 20" fill="none" xmlns="http://www.w3.org/2000/svg">
<path d="M12.5 3.75C12.5 5.39125 12.12 6.885 11.5 8C11.2372 7.80281 10.9381 7.65937 10.6198 7.57786C10.3015 7.49636 9.97026 7.47839 9.64502 7.525C9.29502 6.2975 8.50752 4.975 7.34752 3.81375C7.15094 3.61611 6.94617 3.42678 6.73377 3.24625C7.75232 2.75439 8.86893 2.49927 10 2.5C10.8638 2.5 11.6938 2.64625 12.4663 2.915C12.4888 3.18917 12.5 3.4675 12.5 3.75ZM12.5 10C12.5 10.0917 12.495 10.1821 12.485 10.2713C13.7575 10.2475 15.235 9.83 16.6488 9.01375C16.8925 8.87342 17.1302 8.72287 17.3613 8.5625C16.9812 6.61378 15.8439 4.89528 14.1988 3.78375C14.1481 4.05253 14.0876 4.31938 14.0175 4.58375C13.5925 6.17 12.8375 7.51625 11.9475 8.4325C12.2938 8.86125 12.5 9.4075 12.5 10ZM12.3288 10.91C12.2086 11.218 12.0285 11.4992 11.7989 11.7371C11.5693 11.9751 11.2948 12.1651 10.9913 12.2963C11.6475 13.3838 12.7475 14.4525 14.16 15.2675C14.41 15.4125 14.6621 15.5446 14.9163 15.6638C15.6607 15.0178 16.2705 14.2315 16.7108 13.3498C17.1512 12.468 17.4134 11.5082 17.4825 10.525C17.2234 10.6167 16.9563 10.6996 16.6813 10.7738C15.1013 11.1975 13.565 11.2188 12.3288 10.9113V10.91ZM10 12.5C9.43752 12.5 8.91752 12.3138 8.50002 12C7.88252 13.1125 7.50502 14.6025 7.50502 16.2388C7.50502 16.5271 7.51627 16.8096 7.53877 17.0863C8.33032 17.3607 9.16225 17.5005 10 17.5C11.175 17.5 12.2875 17.23 13.2788 16.7475C13.0637 16.5655 12.8564 16.3745 12.6575 16.175C11.5013 15.0175 10.7138 13.6988 10.3625 12.475C10.245 12.4917 10.1242 12.5 10 12.5ZM7.50002 10C7.50002 9.9 7.50585 9.80042 7.51752 9.70125C6.24252 9.7225 4.76127 10.14 3.34252 10.96C3.09967 11.0996 2.8628 11.2493 2.63252 11.4088C2.81752 12.3768 3.1915 13.2988 3.73307 14.1222C4.27464 14.9456 4.97318 15.6542 5.78877 16.2075C5.83902 15.933 5.90074 15.6606 5.97377 15.3913C6.39877 13.8075 7.14877 12.4638 8.03627 11.5475C7.68883 11.1065 7.49994 10.5614 7.50002 10ZM3.31627 9.21C4.90002 8.785 6.43877 8.76625 7.67627 9.07625C7.92127 8.45875 8.40502 7.96375 9.01377 7.70125C8.35877 6.60875 7.25627 5.535 5.83752 4.71625C5.59558 4.57593 5.34786 4.44581 5.09502 4.32625C4.34972 4.97068 3.7387 5.75565 3.29687 6.63631C2.85504 7.51696 2.59106 8.47604 2.52002 9.45875C2.77752 9.36708 3.04294 9.28417 3.31627 9.21ZM10 11.25C10.3315 11.25 10.6495 11.1183 10.8839 10.8839C11.1183 10.6495 11.25 10.3315 11.25 10C11.25 9.66848 11.1183 9.35054 10.8839 9.11612C10.6495 8.8817 10.3315 8.75 10 8.75C9.6685 8.75 9.35056 8.8817 9.11614 9.11612C8.88172 9.35054 8.75002 9.66848 8.75002 10C8.75002 10.3315 8.88172 10.6495 9.11614 10.8839C9.35056 11.1183 9.6685 11.25 10 11.25Z" fill="#0579F7"/>
<path d="M10 18.75C7.67936 18.75 5.45376 17.8281 3.81282 16.1872C2.17187 14.5462 1.25 12.3206 1.25 10C1.25 7.67936 2.17187 5.45376 3.81282 3.81282C5.45376 2.17187 7.67936 1.25 10 1.25C12.3206 1.25 14.5462 2.17187 16.1872 3.81282C17.8281 5.45376 18.75 7.67936 18.75 10C18.75 12.3206 17.8281 14.5462 16.1872 16.1872C14.5462 17.8281 12.3206 18.75 10 18.75ZM10 20C12.6522 20 15.1957 18.9464 17.0711 17.0711C18.9464 15.1957 20 12.6522 20 10C20 7.34784 18.9464 4.8043 17.0711 2.92893C15.1957 1.05357 12.6522 0 10 0C7.34784 0 4.8043 1.05357 2.92893 2.92893C1.05357 4.8043 0 7.34784 0 10C0 12.6522 1.05357 15.1957 2.92893 17.0711C4.8043 18.9464 7.34784 20 10 20Z" fill="#0579F7"/>
</svg>
