<svg width="60" height="60" viewBox="0 0 60 60" fill="none" xmlns="http://www.w3.org/2000/svg">
<ellipse cx="30" cy="30" rx="30" ry="30" fill="#FEFEFE"/>
<path d="M43.55 29.3385H42.129C41.3271 29.3385 40.679 29.8591 40.679 30.5C40.679 31.1394 41.3271 31.6585 42.129 31.6585H43.55C44.3504 31.6585 45 31.1409 45 30.5C45 29.8605 44.3489 29.3385 43.55 29.3385ZM30.5 22.525C29.4518 22.5217 28.4133 22.7258 27.4442 23.1254C26.4752 23.5251 25.5948 24.1124 24.8536 24.8536C24.1124 25.5948 23.5251 26.4752 23.1254 27.4442C22.7258 28.4133 22.5217 29.4518 22.525 30.5C22.525 34.9239 26.076 38.475 30.5 38.475C34.9225 38.475 38.475 34.9239 38.475 30.5C38.475 26.076 34.921 22.525 30.5 22.525ZM30.5 36.3C27.294 36.3 24.7 33.703 24.7 30.5C24.7 27.294 27.294 24.7 30.5 24.7C32.0382 24.7 33.5135 25.3111 34.6012 26.3988C35.6889 27.4865 36.3 28.9617 36.3 30.5C36.3 32.0383 35.6889 33.5135 34.6012 34.6012C33.5135 35.6889 32.0382 36.3 30.5 36.3ZM20.35 30.5C20.35 29.8605 19.6989 29.3385 18.9 29.3385H17.45C16.6481 29.3385 16 29.8591 16 30.5C16 31.1394 16.6481 31.6585 17.45 31.6585H18.9C19.6989 31.6585 20.35 31.1394 20.35 30.5ZM30.5 20.35C31.1394 20.35 31.6585 19.7018 31.6585 18.9V17.45C31.6585 16.6481 31.1394 16 30.5 16C29.8605 16 29.3385 16.6481 29.3385 17.45V18.9C29.3385 19.7018 29.8591 20.35 30.5 20.35ZM30.5 40.65C29.8591 40.65 29.3385 41.2981 29.3385 42.1V43.55C29.3385 44.3518 29.8591 45 30.5 45C31.1394 45 31.6585 44.3518 31.6585 43.55V42.1C31.6585 41.2981 31.1394 40.65 30.5 40.65ZM41.1792 21.4607C41.7462 20.8937 41.8375 20.0672 41.3851 19.6148C40.9327 19.1624 40.1048 19.2552 39.5407 19.8222L38.5257 20.8357C37.9588 21.4027 37.8674 22.2292 38.3198 22.6816C38.7722 23.134 39.6002 23.0412 40.1657 22.4742L41.1792 21.4607ZM20.8343 38.5228L19.8193 39.5393C19.2523 40.1062 19.161 40.9298 19.6134 41.3822C20.0658 41.8346 20.8937 41.7447 21.4578 41.1778L22.4728 40.1642C23.0397 39.5973 23.1311 38.7708 22.6787 38.3169C22.2263 37.8631 21.3983 37.9588 20.8343 38.5228ZM21.4592 19.8207C20.8937 19.2538 20.0658 19.161 19.6134 19.6134C19.161 20.0658 19.2538 20.8937 19.8178 21.4607L20.8328 22.4742C21.3998 23.0412 22.2248 23.134 22.6772 22.6816C23.1296 22.2292 23.0383 21.4012 22.4728 20.8357L21.4592 19.8207ZM38.5243 40.1657L39.5393 41.1792C40.1062 41.7462 40.9313 41.8361 41.3837 41.3866C41.8361 40.9342 41.7447 40.1062 41.1778 39.5407L40.1642 38.5272C39.5973 37.9602 38.7708 37.8674 38.3169 38.3198C37.8631 38.7722 37.9573 39.5987 38.5243 40.1657Z" fill="#FBA518"/>
</svg>
