<svg width="60" height="60" viewBox="0 0 60 60" fill="none" xmlns="http://www.w3.org/2000/svg">
<ellipse cx="30" cy="30" rx="30" ry="30" fill="#FEFEFE"/>
<path d="M18.625 29.5C18.625 30.9281 18.9063 32.3423 19.4528 33.6617C19.9993 34.9811 20.8004 36.1799 21.8102 37.1898C22.8201 38.1996 24.0189 39.0007 25.3383 39.5472C26.6577 40.0937 28.0719 40.375 29.5 40.375C30.9281 40.375 32.3423 40.0937 33.6617 39.5472C34.9811 39.0007 36.1799 38.1996 37.1898 37.1898C38.1996 36.1799 39.0007 34.9811 39.5472 33.6617C40.0937 32.3423 40.375 30.9281 40.375 29.5C40.375 26.6158 39.2292 23.8497 37.1898 21.8102C35.1503 19.7708 32.3842 18.625 29.5 18.625C26.6158 18.625 23.8497 19.7708 21.8102 21.8102C19.7708 23.8497 18.625 26.6158 18.625 29.5Z" stroke="#0C4D7D" stroke-width="2" stroke-linecap="round" stroke-linejoin="round"/>
<path d="M29.5 23.4583V29.5L33.125 33.125" stroke="#0C4D7D" stroke-width="2" stroke-linecap="round" stroke-linejoin="round"/>
</svg>
