<svg width="60" height="60" viewBox="0 0 60 60" fill="none" xmlns="http://www.w3.org/2000/svg">
<ellipse cx="30" cy="30" rx="30" ry="30" fill="#FEFEFE"/>
<path d="M31.8594 33.6791V23.8173H28.2344V33.6773C26.9629 34.337 26.0829 35.6529 26.0829 37.1845C26.0986 38.2258 26.5231 39.2191 27.265 39.95C28.0068 40.6809 29.0064 41.0906 30.0478 41.0907C31.0892 41.0909 32.0888 40.6813 32.8309 39.9506C33.5729 39.2199 33.9977 38.2267 34.0135 37.1854C34.0135 35.6538 33.1345 34.3379 31.8603 33.68L31.8594 33.6791ZM34.5781 20.756C34.5781 18.2584 32.5445 16.2247 30.0469 16.2247C27.5493 16.2247 25.5156 18.2593 25.5156 20.756V32.2898C24.8361 32.9109 24.2937 33.6669 23.9231 34.5096C23.5525 35.3523 23.3618 36.263 23.3633 37.1836C23.3633 40.8684 26.363 43.869 30.0478 43.869C33.7326 43.869 36.7314 40.8693 36.7314 37.1836C36.7314 35.2931 35.9357 33.5314 34.579 32.288V20.7578L34.5781 20.756ZM34.918 37.1863C34.9161 38.4773 34.4021 39.7149 33.489 40.6276C32.5758 41.5403 31.3379 42.0535 30.0469 42.0547C28.756 42.053 27.5184 41.5394 26.6056 40.6266C25.6928 39.7138 25.1793 38.4763 25.1776 37.1854C25.1776 35.5587 25.9896 34.0652 27.3309 33.1634V20.7578C27.3309 19.2598 28.5479 18.039 30.0469 18.039C31.5458 18.039 32.7656 19.2589 32.7656 20.7578V33.1644C33.4278 33.6055 33.9708 34.2034 34.3463 34.9048C34.7218 35.6063 34.9181 36.3906 34.918 37.1863ZM36.0145 23.8173L40.0927 26.1717V21.4647L36.0145 23.8173Z" fill="#E52020"/>
</svg>
