<svg width="60" height="60" viewBox="0 0 60 60" fill="none" xmlns="http://www.w3.org/2000/svg">
<ellipse cx="30" cy="30" rx="30" ry="30" fill="#FEFEFE"/>
<path d="M37.2751 28.6811L31.2676 19.1147C31.1804 18.9924 31.0653 18.8926 30.9318 18.8238C30.7982 18.755 30.6502 18.7191 30.5 18.7191C30.3498 18.7191 30.2018 18.755 30.0682 18.8238C29.9347 18.8926 29.8196 18.9924 29.7324 19.1147L23.6977 28.7273C22.86 30.0796 22.393 31.6287 22.3438 33.2187C22.3438 35.3818 23.2031 37.4564 24.7327 38.986C26.2623 40.5156 28.3368 41.3749 30.5 41.3749C32.6632 41.3749 34.7377 40.5156 36.2673 38.986C37.7969 37.4564 38.6562 35.3818 38.6562 33.2187C38.6043 31.6108 38.1278 30.0453 37.2751 28.6811ZM30.5 39.5624C28.8183 39.56 27.2061 38.8909 26.0169 37.7017C24.8278 36.5126 24.1586 34.9004 24.1562 33.2187C24.2053 31.9515 24.5859 30.7194 25.2601 29.6453L26.1074 28.295L35.237 37.4246C34.6439 38.0962 33.9149 38.6342 33.0983 39.0029C32.2817 39.3716 31.396 39.5618 30.5 39.5624Z" fill="#2F8ED4"/>
</svg>
