<svg width="35" height="35" viewBox="0 0 35 35" fill="none" xmlns="http://www.w3.org/2000/svg">
<path d="M25.159 18.2146C24.7448 21.6635 22.4859 23.0417 21.5103 24.0421C20.5332 25.0454 20.7082 25.2452 20.7738 26.7167C20.7847 26.8987 20.7583 27.0811 20.6961 27.2525C20.6339 27.424 20.5372 27.5809 20.4121 27.7135C20.2869 27.8462 20.1359 27.9518 19.9684 28.0239C19.8009 28.096 19.6203 28.133 19.438 28.1327H15.5617C15.3795 28.1324 15.1992 28.0949 15.0319 28.0226C14.8646 27.9504 14.7137 27.8447 14.5886 27.7122C14.4634 27.5797 14.3666 27.4231 14.304 27.2519C14.2414 27.0808 14.2143 26.8986 14.2244 26.7167C14.2244 25.2729 14.3586 24.9375 13.4894 24.0421C12.3811 22.9337 9.77359 21.3689 9.77359 17.0654C9.76693 15.9964 9.98179 14.9377 10.4046 13.9559C10.8275 12.9741 11.4491 12.0905 12.2304 11.3609C13.0116 10.6313 13.9356 10.0714 14.9439 9.7166C15.9523 9.36178 17.0233 9.21971 18.0893 9.29933C19.1553 9.37895 20.1932 9.67855 21.1377 10.1792C22.0822 10.6799 22.9127 11.3708 23.5769 12.2084C24.2411 13.046 24.7246 14.0121 24.9969 15.0458C25.2692 16.0795 25.3244 17.1585 25.159 18.2146Z" stroke="#0479FB" stroke-width="1.5" stroke-linecap="round" stroke-linejoin="round"/>
<path d="M15.2541 28.0525V30.2575C15.2541 30.8598 15.5895 31.3541 16.0022 31.3541H18.9962C19.4118 31.3541 19.7457 30.8583 19.7457 30.2575V28.0525M16.3624 12.6816C15.5013 12.682 14.6756 13.0244 14.0669 13.6334C13.4581 14.2424 13.1162 15.0683 13.1162 15.9293M28.1924 17.36H30.867M25.5003 8.59247L27.3976 6.69518M26.9587 24.7916L28.8559 26.6875M17.4999 3.46643V5.62914M7.64157 6.69372L9.52574 8.59247M6.18324 26.6875L8.0674 24.7916M6.8074 17.36H4.13428" stroke="#0479FB" stroke-width="1.5" stroke-linecap="round" stroke-linejoin="round"/>
</svg>
